<svg width="129" height="129" viewBox="0 0 129 129" fill="none" xmlns="http://www.w3.org/2000/svg">
<path d="M64.2562 36.5901L68.6334 32.2034C79.8488 20.988 98.0082 20.988 109.224 32.2034C120.421 43.4005 120.401 61.5003 109.231 72.7324L67.0902 114.849C65.5281 116.411 62.9955 116.411 61.4334 114.849L19.3247 72.7403C8.12971 61.5452 8.12971 43.3945 19.3247 32.1995C30.5198 21.0044 48.6705 21.0044 59.8655 32.1995L64.2562 36.5901ZM64.2618 106.364L103.559 67.0913C111.626 58.9796 111.639 45.9331 103.567 37.8603C95.8321 30.1257 83.5259 29.7848 75.3884 36.8376C75.3703 36.8562 75.3521 36.8746 75.3337 36.8929L69.9598 42.2206L67.1722 45.0275C67.0257 45.1811 66.87 45.3205 66.7068 45.4456L60.1127 51.9831L75.0229 66.2268C75.8015 66.9705 76.2473 67.9967 76.2596 69.0734C76.2719 70.15 75.8496 71.1862 75.0883 71.9475L61.755 85.2809C60.1929 86.843 57.6602 86.843 56.0981 85.2809C54.536 83.7188 54.536 81.1861 56.0981 79.624L66.5376 69.1845L51.6146 54.9286C50.8339 54.1828 50.3879 53.153 50.3779 52.0734C50.3678 50.9937 50.7947 49.9559 51.5615 49.1957L58.5849 42.2326L54.2087 37.8563C46.1378 29.7855 33.0524 29.7855 24.9816 37.8563C16.9108 45.9271 16.9108 59.0126 24.9816 67.0834L64.2618 106.364Z" fill="white"/>
</svg>
