<svg width="20" height="20" viewBox="0 0 20 20" fill="none" xmlns="http://www.w3.org/2000/svg">
<path d="M8.74996 6.66669C7.36925 6.66669 6.24996 7.78598 6.24996 9.16669C6.24996 10.5474 7.36925 11.6667 8.74996 11.6667C10.1307 11.6667 11.25 10.5474 11.25 9.16669C11.25 7.78598 10.1307 6.66669 8.74996 6.66669ZM7.49996 9.16669C7.49996 8.47633 8.0596 7.91669 8.74996 7.91669C9.44032 7.91669 9.99996 8.47633 9.99996 9.16669C9.99996 9.85704 9.44032 10.4167 8.74996 10.4167C8.0596 10.4167 7.49996 9.85704 7.49996 9.16669ZM1.66663 6.04169C1.66663 5.00615 2.50609 4.16669 3.54163 4.16669H13.9583C14.9938 4.16669 15.8333 5.00615 15.8333 6.04169V12.2917C15.8333 13.3272 14.9938 14.1667 13.9583 14.1667H3.54163C2.50609 14.1667 1.66663 13.3272 1.66663 12.2917V6.04169ZM3.54163 5.41669C3.19645 5.41669 2.91663 5.69651 2.91663 6.04169V6.66669H3.54163C3.8868 6.66669 4.16663 6.38686 4.16663 6.04169V5.41669H3.54163ZM2.91663 10.4167H3.54163C4.57716 10.4167 5.41663 11.2562 5.41663 12.2917V12.9167H12.0833V12.2917C12.0833 11.2562 12.9228 10.4167 13.9583 10.4167H14.5833V7.91669H13.9583C12.9228 7.91669 12.0833 7.07722 12.0833 6.04169V5.41669H5.41663V6.04169C5.41663 7.07722 4.57716 7.91669 3.54163 7.91669H2.91663V10.4167ZM14.5833 6.66669V6.04169C14.5833 5.69651 14.3035 5.41669 13.9583 5.41669H13.3333V6.04169C13.3333 6.38686 13.6131 6.66669 13.9583 6.66669H14.5833ZM14.5833 11.6667H13.9583C13.6131 11.6667 13.3333 11.9465 13.3333 12.2917V12.9167H13.9583C14.3035 12.9167 14.5833 12.6369 14.5833 12.2917V11.6667ZM2.91663 12.2917C2.91663 12.6369 3.19645 12.9167 3.54163 12.9167H4.16663V12.2917C4.16663 11.9465 3.8868 11.6667 3.54163 11.6667H2.91663V12.2917ZM3.66777 15.4167C4.10003 16.164 4.90796 16.6667 5.83331 16.6667H14.375C16.5611 16.6667 18.3333 14.8945 18.3333 12.7084V8.33337C18.3333 7.40802 17.8306 6.60009 17.0833 6.16783V12.7084C17.0833 14.2041 15.8707 15.4167 14.375 15.4167H3.66777Z" fill="#CCCCCC"/>
</svg>
