<svg width="129" height="129" viewBox="0 0 129 129" fill="none" xmlns="http://www.w3.org/2000/svg">
<path d="M68.6344 30.0196L64.2572 34.4063L59.8665 30.0156C48.6715 18.8206 30.5207 18.8206 19.3257 30.0156C8.13069 41.2106 8.13069 59.3614 19.3257 70.5564L61.4344 112.665C62.9965 114.227 65.5291 114.227 67.0912 112.665L109.232 70.5486C120.402 59.3164 120.422 41.2166 109.225 30.0196C98.0091 18.8042 79.8498 18.8042 68.6344 30.0196ZM103.56 64.9074L64.2628 104.18L24.9826 64.8996C16.9117 56.8287 16.9117 43.7433 24.9826 35.6725C33.0534 27.6016 46.1388 27.6016 54.2097 35.6725L61.4494 42.9122C63.038 44.5008 65.623 44.4698 67.1731 42.8436L74.2912 35.6764C82.3824 27.5852 95.4765 27.5852 103.568 35.6764C111.64 43.7492 111.627 56.7958 103.56 64.9074Z" fill="white"/>
</svg>
