<svg width="124" height="96" viewBox="0 0 124 96" fill="none" xmlns="http://www.w3.org/2000/svg">
<path d="M53.796 -4.50208L17.4154 11.2026C13.688 12.8729 11.625 17.0944 11.625 21.3671V71.9013C11.625 77.7666 13.7419 82.7877 18.8214 85.0405L54.8036 100.706C59.4446 102.765 64.5554 102.765 69.1964 100.706L105.179 81.1497C110.258 78.8968 112.375 77.7666 112.375 71.9013V21.3671C112.375 17.0944 110.705 12.8729 106.978 11.2026L70.204 -4.50208C65.0148 -6.83264 59.0583 -6.83264 53.796 -4.50208Z" fill="#F3EEF8"/>
<path d="M18.8214 85.0401C13.7419 82.7872 11.625 77.7661 11.625 71.9009H112.375C112.375 77.7661 110.258 79.1498 105.179 81.4026L69.1964 100.706C64.5554 102.764 59.4446 102.764 54.8036 100.706L18.8214 85.0401Z" fill="#B4ACBC"/>
<path d="M11.625 21.7823C11.625 17.5608 15.9831 14.7473 19.8303 16.4852L55.1606 32.4445C59.3241 34.3253 62 38.4703 62 43.0388V94.946C62 99.1397 57.6942 101.953 53.8534 100.269L16.2629 83.7872C13.4451 82.5517 11.625 79.7663 11.625 76.6895V21.7823Z" fill="#B4ACBC"/>
<path d="M112.375 21.858C112.375 17.6365 108.017 14.823 104.17 16.5609L68.8394 32.5202C64.6759 34.4009 62 38.5459 62 43.1145V95.0216C62 99.2154 66.3058 102.029 70.1466 100.345L107.737 83.8629C110.555 82.6274 112.375 79.842 112.375 76.7652V21.858Z" fill="#E1D8EC"/>
<path d="M25.9063 47.986C29.0821 47.7314 31.3552 44.0393 30.9541 39.7743C30.5529 35.4776 27.6445 32.2311 24.4687 32.5176C21.2929 32.7722 19.0198 36.4643 19.4209 40.7292C19.8221 44.9942 22.7305 48.2406 25.9063 47.986ZM104.579 40.7257C104.98 36.4607 102.707 32.7686 99.5313 32.514C96.3555 32.2594 93.4471 35.5058 93.0459 39.7708C92.6448 44.0357 94.9179 47.7278 98.0937 47.9824C101.27 48.2689 104.178 45.0224 104.579 40.7257ZM54.2041 78.5243C54.6052 82.7893 52.3321 86.4814 49.1563 86.736C45.9805 86.9906 43.0721 83.7442 42.6709 79.4792C42.2698 75.2143 44.5429 71.5222 47.7187 71.2676C50.8945 70.9811 53.8029 74.2276 54.2041 78.5243ZM87.9063 51.889C91.0821 52.1436 93.3552 55.8357 92.9541 60.1007C92.5529 64.3974 89.6445 67.6439 86.4687 67.3574C83.2929 67.1028 81.0198 63.4107 81.4209 59.1458C81.8221 54.8808 84.7305 51.6344 87.9063 51.889ZM81.3291 79.4757C81.7302 75.2107 79.4571 71.5186 76.2813 71.264C73.1055 71.0094 70.1971 74.2558 69.7959 78.5208C69.3948 82.7857 71.6679 86.4778 74.8437 86.7324C78.0195 87.0189 80.9279 83.7724 81.3291 79.4757Z" fill="#433B6B"/>
<path d="M61.9999 15.0625C68.4203 15.0625 73.625 13.3276 73.625 11.1875C73.625 9.04739 68.4203 7.3125 61.9999 7.3125C55.5796 7.3125 50.375 9.04739 50.375 11.1875C50.375 13.3276 55.5796 15.0625 61.9999 15.0625Z" fill="#F8312F"/>
</svg>
