<svg width="28" height="28" viewBox="0 0 28 28" fill="none" xmlns="http://www.w3.org/2000/svg">
<path d="M7.61629 9.04167C7.61629 9.52492 7.22454 9.91667 6.74129 9.91667C6.25804 9.91667 5.86629 9.52492 5.86629 9.04167C5.86629 8.55842 6.25804 8.16667 6.74129 8.16667C7.22454 8.16667 7.61629 8.55842 7.61629 9.04167ZM6.74471 17.5C6.26146 17.5 5.86971 17.8918 5.86971 18.375C5.86971 18.8582 6.26146 19.25 6.74471 19.25H12.578C13.0613 19.25 13.453 18.8582 13.453 18.375C13.453 17.8918 13.0613 17.5 12.578 17.5H6.74471ZM5.86971 13.7083C5.86971 13.2251 6.26146 12.8333 6.74471 12.8333H12.578C13.0613 12.8333 13.453 13.2251 13.453 13.7083C13.453 14.1916 13.0613 14.5833 12.578 14.5833H6.74471C6.26146 14.5833 5.86971 14.1916 5.86971 13.7083ZM17.4999 24.4999C18.5978 24.4925 19.5409 23.7151 19.7565 22.637L20.3172 19.8333H23.6249C24.7525 19.8333 25.6666 18.9192 25.6666 17.7917V10.8047C25.6666 9.35208 24.4925 8.1737 23.0416 8.1667V8.16211H16.9166V6.125C16.9166 4.67525 15.7413 3.5 14.2916 3.5H4.95825C3.5085 3.5 2.33325 4.67525 2.33325 6.125V20.7083C2.33325 22.8024 4.03084 24.5 6.12492 24.5H17.484L17.4999 24.4999ZM4.08325 6.125C4.08325 5.64175 4.475 5.25 4.95825 5.25H14.2916C14.7748 5.25 15.1666 5.64175 15.1666 6.125V22.1825C15.1666 22.3783 15.1909 22.5684 15.2366 22.75H6.12492C4.99734 22.75 4.08325 21.8359 4.08325 20.7083V6.125ZM16.9166 9.91211H20.5459C20.5026 10.033 20.4676 10.1583 20.4418 10.2873L18.0405 22.2938C17.9874 22.5591 17.7545 22.75 17.484 22.75C17.1706 22.75 16.9166 22.4959 16.9166 22.1825V9.91211ZM22.1578 10.6305C22.2408 10.2154 22.6053 9.91667 23.0286 9.91667C23.519 9.91667 23.9166 10.3142 23.9166 10.8047V17.7917C23.9166 17.9527 23.786 18.0833 23.6249 18.0833H20.6672L22.1578 10.6305Z" fill="#999999"/>
</svg>
