<svg width="20" height="20" viewBox="0 0 20 20" fill="none" xmlns="http://www.w3.org/2000/svg">
<path d="M14.5833 5.41669C14.5833 5.99198 14.1169 6.45835 13.5416 6.45835C12.9663 6.45835 12.5 5.99198 12.5 5.41669C12.5 4.84139 12.9663 4.37502 13.5416 4.37502C14.1169 4.37502 14.5833 4.84139 14.5833 5.41669ZM8.75631 2.41516C9.26005 1.93472 9.92943 1.66669 10.6255 1.66669H15.208C16.4737 1.66669 17.4997 2.6927 17.4997 3.95835V8.08555C17.4997 8.81142 17.2083 9.5069 16.6909 10.016L10.9031 15.7112C10.1704 16.4322 8.99389 16.4288 8.26533 15.7037L3.05149 10.5147C2.30395 9.77075 2.31687 8.55682 3.08006 7.82892L8.75631 2.41516ZM10.6255 2.91669C10.2507 2.91669 9.89027 3.06101 9.61903 3.31971L3.94279 8.73347C3.68839 8.9761 3.68408 9.38075 3.93326 9.62874L9.14711 14.8178C9.38996 15.0595 9.78213 15.0606 10.0264 14.8203L15.8142 9.12503C16.0928 8.85089 16.2497 8.4764 16.2497 8.08555V3.95835C16.2497 3.38306 15.7833 2.91669 15.208 2.91669H10.6255ZM17.2757 10.61L16.0465 11.8196C16.0133 11.8648 15.9761 11.9079 15.9347 11.9485L11.4902 16.3054C11.3155 16.4767 11.1234 16.6195 10.9197 16.734C9.88837 17.3168 8.55718 17.1696 7.6778 16.2944L6.06833 14.6926L4.05895 12.7043C4.02669 12.6723 3.99695 12.6388 3.96974 12.604L2.61241 11.2531C2.35308 12.0506 2.54234 12.9621 3.17973 13.5928L6.81007 17.1851C8.34733 18.7062 10.8209 18.712 12.3653 17.1981L16.8097 12.8411C17.454 12.2095 17.6439 11.2952 17.3857 10.4969C17.3499 10.5353 17.3133 10.573 17.2757 10.61Z" fill="#CCCCCC"/>
</svg>
