<svg width="265" height="176" viewBox="0 0 265 176" fill="none" xmlns="http://www.w3.org/2000/svg">
<g clip-path="url(#clip0_4113_2955)">
<path d="M56.8293 116H23L58.6098 0H92.439L56.8293 116Z" fill="url(#paint0_linear_4113_2955)"/>
<path d="M163.659 0L128.049 116L111.134 60.6769L129.829 0H163.659Z" fill="url(#paint1_linear_4113_2955)"/>
<path d="M92.439 0L75.5244 55.3231L94.2195 116H128.049L92.439 0Z" fill="url(#paint2_linear_4113_2955)"/>
<path d="M163.659 0L146.744 55.3231L165.439 116H199.268L163.659 0Z" fill="url(#paint3_linear_4113_2955)"/>
<path d="M239.329 36.5846L221.524 56.2154L177.902 33.9077L167.219 0L239.329 36.5846Z" fill="url(#paint4_linear_4113_2955)"/>
<path d="M242 66.0308L199.268 116L190.964 88.8892L239.329 36.5846L242 66.0308Z" fill="url(#paint5_linear_4113_2955)"/>
</g>
<path d="M22.0485 148.112H21.9218L19.7676 152.358L14.0232 162.639L8.40546 152.4L6.16682 147.821H6.0401V167.176H0V138.123H6.8004L14.0232 151.734H14.1077L21.246 138.123H28.0886V167.176H22.0485V148.112Z" fill="#EF3A01"/>
<path d="M43.2664 167.675C41.6332 167.675 40.1689 167.412 38.8736 166.884C37.6064 166.357 36.5223 165.594 35.6212 164.595C34.7483 163.596 34.0725 162.389 33.5938 160.974C33.1151 159.559 32.8757 157.977 32.8757 156.229C32.8757 154.481 33.1151 152.899 33.5938 151.484C34.0725 150.069 34.7483 148.875 35.6212 147.904C36.5223 146.905 37.6064 146.142 38.8736 145.615C40.1689 145.088 41.6332 144.824 43.2664 144.824C44.8996 144.824 46.3498 145.088 47.617 145.615C48.9123 146.142 49.9964 146.905 50.8693 147.904C51.7704 148.875 52.4603 150.069 52.939 151.484C53.4177 152.899 53.6571 154.481 53.6571 156.229C53.6571 157.977 53.4177 159.559 52.939 160.974C52.4603 162.389 51.7704 163.596 50.8693 164.595C49.9964 165.594 48.9123 166.357 47.617 166.884C46.3498 167.412 44.8996 167.675 43.2664 167.675ZM43.2664 162.805C44.5054 162.805 45.4628 162.431 46.1386 161.682C46.8144 160.932 47.1523 159.864 47.1523 158.477V154.023C47.1523 152.635 46.8144 151.567 46.1386 150.818C45.4628 150.069 44.5054 149.694 43.2664 149.694C42.0274 149.694 41.07 150.069 40.3942 150.818C39.7184 151.567 39.3805 152.635 39.3805 154.023V158.477C39.3805 159.864 39.7184 160.932 40.3942 161.682C41.07 162.431 42.0274 162.805 43.2664 162.805Z" fill="#EF3A01"/>
<path d="M62.512 167.176L55.247 145.324H61.4138L64.1593 154.148L66.229 162.056H66.5669L68.6366 154.148L71.2976 145.324H77.211L69.946 167.176H62.512Z" fill="#EF3A01"/>
<path d="M83.6348 142.993C82.3677 142.993 81.4384 142.715 80.8471 142.16C80.2839 141.578 80.0023 140.842 80.0023 139.954V139.038C80.0023 138.151 80.2839 137.429 80.8471 136.874C81.4384 136.291 82.3677 136 83.6348 136C84.902 136 85.8172 136.291 86.3803 136.874C86.9717 137.429 87.2674 138.151 87.2674 139.038V139.954C87.2674 140.842 86.9717 141.578 86.3803 142.16C85.8172 142.715 84.902 142.993 83.6348 142.993ZM80.5092 145.324H86.7605V167.176H80.5092V145.324Z" fill="#EF3A01"/>
<path d="M101.845 167.675C100.156 167.675 98.6492 167.412 97.3257 166.884C96.0023 166.33 94.8759 165.566 93.9466 164.595C93.0456 163.596 92.3557 162.389 91.877 160.974C91.4264 159.559 91.2011 157.977 91.2011 156.229C91.2011 154.508 91.4264 152.955 91.877 151.567C92.3275 150.152 92.9892 148.945 93.8622 147.946C94.7633 146.947 95.8615 146.184 97.1568 145.657C98.4521 145.102 99.9304 144.824 101.592 144.824C103.422 144.824 104.985 145.129 106.28 145.74C107.604 146.35 108.674 147.169 109.49 148.196C110.335 149.222 110.941 150.416 111.307 151.775C111.701 153.107 111.898 154.508 111.898 155.979V157.811H97.6636V158.144C97.6636 159.587 98.0579 160.738 98.8463 161.598C99.6348 162.431 100.874 162.847 102.563 162.847C103.859 162.847 104.915 162.597 105.731 162.098C106.548 161.571 107.308 160.946 108.012 160.225L111.138 164.054C110.152 165.192 108.857 166.08 107.252 166.718C105.675 167.356 103.873 167.675 101.845 167.675ZM101.719 149.361C100.451 149.361 99.4517 149.777 98.7196 150.61C98.0156 151.414 97.6636 152.497 97.6636 153.856V154.189H105.436V153.815C105.436 152.483 105.126 151.414 104.506 150.61C103.915 149.777 102.986 149.361 101.719 149.361Z" fill="#EF3A01"/>
<path d="M128.562 167.675C126.563 167.675 124.761 167.37 123.156 166.76C121.55 166.121 120.185 165.192 119.058 163.971C117.932 162.722 117.059 161.182 116.44 159.351C115.82 157.491 115.51 155.327 115.51 152.857C115.51 150.416 115.82 148.251 116.44 146.364C117.059 144.45 117.932 142.854 119.058 141.578C120.185 140.273 121.55 139.288 123.156 138.622C124.761 137.956 126.563 137.623 128.562 137.623C131.294 137.623 133.546 138.178 135.32 139.288C137.094 140.37 138.516 142.091 139.586 144.45L134.053 147.28C133.659 146.059 133.039 145.088 132.195 144.366C131.378 143.617 130.167 143.242 128.562 143.242C126.675 143.242 125.155 143.853 124 145.074C122.874 146.267 122.311 148.015 122.311 150.318V154.98C122.311 157.283 122.874 159.045 124 160.266C125.155 161.46 126.675 162.056 128.562 162.056C130.139 162.056 131.392 161.64 132.321 160.807C133.279 159.947 133.983 158.921 134.433 157.727L139.671 160.724C138.573 162.944 137.122 164.665 135.32 165.886C133.546 167.079 131.294 167.675 128.562 167.675Z" fill="#EF3A01"/>
<path d="M160.214 167.176C159.088 167.176 158.145 166.829 157.384 166.135C156.652 165.442 156.187 164.512 155.99 163.347H155.737C155.399 164.762 154.653 165.844 153.498 166.593C152.344 167.315 150.922 167.675 149.232 167.675C147.008 167.675 145.304 167.093 144.121 165.927C142.939 164.762 142.347 163.222 142.347 161.307C142.347 159.004 143.192 157.297 144.882 156.187C146.599 155.05 148.922 154.481 151.851 154.481H155.357V153.107C155.357 152.053 155.075 151.22 154.512 150.61C153.949 149.972 153.006 149.652 151.682 149.652C150.443 149.652 149.457 149.916 148.725 150.443C147.993 150.971 147.388 151.567 146.909 152.233L143.192 148.986C144.093 147.682 145.22 146.669 146.571 145.948C147.951 145.199 149.809 144.824 152.147 144.824C155.3 144.824 157.666 145.504 159.243 146.864C160.82 148.223 161.608 150.207 161.608 152.816V162.389H163.678V167.176H160.214ZM151.555 163.388C152.597 163.388 153.484 163.166 154.216 162.722C154.977 162.278 155.357 161.557 155.357 160.558V157.977H152.316C149.866 157.977 148.641 158.796 148.641 160.433V161.057C148.641 161.862 148.894 162.459 149.401 162.847C149.908 163.208 150.626 163.388 151.555 163.388Z" fill="#EF3A01"/>
<path d="M175.398 167.176C173.23 167.176 171.582 166.635 170.456 165.553C169.358 164.47 168.809 162.889 168.809 160.807V150.11H165.683V145.324H167.246C168.091 145.324 168.668 145.129 168.978 144.741C169.287 144.325 169.442 143.742 169.442 142.993V139.413H175.06V145.324H179.453V150.11H175.06V162.389H179.115V167.176H175.398Z" fill="#EF3A01"/>
<path d="M200.184 167.176C199.058 167.176 198.114 166.829 197.354 166.135C196.622 165.442 196.157 164.512 195.96 163.347H195.707C195.369 164.762 194.623 165.844 193.468 166.593C192.314 167.315 190.892 167.675 189.202 167.675C186.977 167.675 185.274 167.093 184.091 165.927C182.908 164.762 182.317 163.222 182.317 161.307C182.317 159.004 183.162 157.297 184.851 156.187C186.569 155.05 188.892 154.481 191.821 154.481H195.327V153.107C195.327 152.053 195.045 151.22 194.482 150.61C193.919 149.972 192.975 149.652 191.652 149.652C190.413 149.652 189.427 149.916 188.695 150.443C187.963 150.971 187.358 151.567 186.879 152.233L183.162 148.986C184.063 147.682 185.189 146.669 186.541 145.948C187.921 145.199 189.779 144.824 192.117 144.824C195.27 144.824 197.636 145.504 199.213 146.864C200.789 148.223 201.578 150.207 201.578 152.816V162.389H203.648V167.176H200.184ZM191.525 163.388C192.567 163.388 193.454 163.166 194.186 162.722C194.946 162.278 195.327 161.557 195.327 160.558V157.977H192.285C189.836 157.977 188.611 158.796 188.611 160.433V161.057C188.611 161.862 188.864 162.459 189.371 162.847C189.878 163.208 190.596 163.388 191.525 163.388Z" fill="#EF3A01"/>
<path d="M214.052 167.176C211.912 167.176 210.335 166.663 209.322 165.636C208.336 164.609 207.843 163.125 207.843 161.182V136.375H214.095V162.389H216.882V167.176H214.052Z" fill="#EF3A01"/>
<path d="M229.627 167.675C227.994 167.675 226.53 167.412 225.234 166.884C223.967 166.357 222.883 165.594 221.982 164.595C221.109 163.596 220.433 162.389 219.955 160.974C219.476 159.559 219.237 157.977 219.237 156.229C219.237 154.481 219.476 152.899 219.955 151.484C220.433 150.069 221.109 148.875 221.982 147.904C222.883 146.905 223.967 146.142 225.234 145.615C226.53 145.088 227.994 144.824 229.627 144.824C231.26 144.824 232.711 145.088 233.978 145.615C235.273 146.142 236.357 146.905 237.23 147.904C238.131 148.875 238.821 150.069 239.3 151.484C239.779 152.899 240.018 154.481 240.018 156.229C240.018 157.977 239.779 159.559 239.3 160.974C238.821 162.389 238.131 163.596 237.23 164.595C236.357 165.594 235.273 166.357 233.978 166.884C232.711 167.412 231.26 167.675 229.627 167.675ZM229.627 162.805C230.866 162.805 231.824 162.431 232.499 161.682C233.175 160.932 233.513 159.864 233.513 158.477V154.023C233.513 152.635 233.175 151.567 232.499 150.818C231.824 150.069 230.866 149.694 229.627 149.694C228.388 149.694 227.431 150.069 226.755 150.818C226.079 151.567 225.741 152.635 225.741 154.023V158.477C225.741 159.864 226.079 160.932 226.755 161.682C227.431 162.431 228.388 162.805 229.627 162.805Z" fill="#EF3A01"/>
<path d="M265 168.758C265 169.923 264.789 170.95 264.366 171.838C263.972 172.726 263.31 173.475 262.381 174.085C261.452 174.724 260.213 175.195 258.664 175.501C257.144 175.834 255.257 176 253.004 176C251.089 176 249.456 175.875 248.105 175.625C246.781 175.403 245.697 175.07 244.852 174.626C244.036 174.21 243.43 173.683 243.036 173.045C242.67 172.434 242.487 171.727 242.487 170.922C242.487 169.701 242.853 168.744 243.585 168.05C244.317 167.356 245.331 166.926 246.626 166.76V166.302C245.556 166.108 244.754 165.664 244.219 164.97C243.684 164.248 243.416 163.416 243.416 162.472C243.416 161.89 243.529 161.39 243.754 160.974C244.007 160.53 244.317 160.155 244.683 159.85C245.077 159.517 245.528 159.254 246.035 159.059C246.542 158.865 247.049 158.712 247.555 158.601V158.435C246.204 157.824 245.204 156.992 244.557 155.938C243.909 154.855 243.585 153.607 243.585 152.191C243.585 149.972 244.359 148.196 245.908 146.864C247.485 145.504 249.879 144.824 253.089 144.824C254.553 144.824 255.806 144.963 256.848 145.24V144.408C256.848 143.242 257.13 142.41 257.693 141.911C258.284 141.383 259.115 141.12 260.185 141.12H263.691V145.698H258.791V145.948C260.086 146.558 261.044 147.405 261.663 148.487C262.283 149.541 262.592 150.776 262.592 152.191C262.592 154.384 261.804 156.146 260.227 157.478C258.678 158.782 256.299 159.434 253.089 159.434C251.653 159.434 250.343 159.281 249.161 158.976C248.513 159.392 248.189 159.975 248.189 160.724C248.189 161.251 248.386 161.668 248.78 161.973C249.203 162.25 249.893 162.389 250.85 162.389H257.27C259.974 162.389 261.931 162.944 263.142 164.054C264.38 165.164 265 166.732 265 168.758ZM259.129 169.59C259.129 168.952 258.875 168.466 258.369 168.133C257.862 167.8 256.975 167.634 255.708 167.634H248.105C247.823 167.911 247.612 168.216 247.471 168.549C247.358 168.91 247.302 169.257 247.302 169.59C247.302 170.395 247.654 170.977 248.358 171.338C249.062 171.727 250.259 171.921 251.948 171.921H254.483C256.172 171.921 257.369 171.727 258.073 171.338C258.777 170.977 259.129 170.395 259.129 169.59ZM253.089 155.396C254.328 155.396 255.243 155.147 255.834 154.647C256.454 154.12 256.763 153.371 256.763 152.4V151.9C256.763 150.929 256.454 150.194 255.834 149.694C255.243 149.167 254.328 148.903 253.089 148.903C251.85 148.903 250.92 149.167 250.301 149.694C249.71 150.194 249.414 150.929 249.414 151.9V152.4C249.414 153.371 249.71 154.12 250.301 154.647C250.92 155.147 251.85 155.396 253.089 155.396Z" fill="#EF3A01"/>
<defs>
<linearGradient id="paint0_linear_4113_2955" x1="41.6951" y1="116" x2="76.5624" y2="0.0444399" gradientUnits="userSpaceOnUse">
<stop stop-color="#FF5823"/>
<stop offset="1" stop-color="#EF3A01"/>
</linearGradient>
<linearGradient id="paint1_linear_4113_2955" x1="119.146" y1="86.5538" x2="145.967" y2="0.0350629" gradientUnits="userSpaceOnUse">
<stop stop-color="#DF2800"/>
<stop offset="1" stop-color="#FD5019"/>
</linearGradient>
<linearGradient id="paint2_linear_4113_2955" x1="110.244" y1="116" x2="82.5302" y2="29.4834" gradientUnits="userSpaceOnUse">
<stop stop-color="#FF5D2B"/>
<stop offset="1" stop-color="#DF2800"/>
</linearGradient>
<linearGradient id="paint3_linear_4113_2955" x1="182.354" y1="116" x2="154.64" y2="28.5908" gradientUnits="userSpaceOnUse">
<stop stop-color="#FF5925"/>
<stop offset="1" stop-color="#DF2800"/>
</linearGradient>
<linearGradient id="paint4_linear_4113_2955" x1="228.646" y1="47.2923" x2="171.613" y2="17.0633" gradientUnits="userSpaceOnUse">
<stop stop-color="#DF2800"/>
<stop offset="1" stop-color="#FF5520"/>
</linearGradient>
<linearGradient id="paint5_linear_4113_2955" x1="188.585" y1="112.431" x2="241.252" y2="50.0894" gradientUnits="userSpaceOnUse">
<stop stop-color="#DF2800"/>
<stop offset="1" stop-color="#FF5D29"/>
</linearGradient>
<clipPath id="clip0_4113_2955">
<rect width="219" height="116" fill="white" transform="matrix(1 0 0 -1 23 116)"/>
</clipPath>
</defs>
</svg>
