<svg width="29" height="28" viewBox="0 0 29 28" fill="none" xmlns="http://www.w3.org/2000/svg">
<path d="M5.16659 3.5H6.33325C7.56271 3.5 8.57105 4.45246 8.66018 5.65928L8.66658 5.83333V22.1667C8.66658 23.3961 7.71412 24.4045 6.50731 24.4936L6.33325 24.5H5.16659C3.93713 24.5 2.92878 23.5475 2.83966 22.3407L2.83325 22.1667V5.83333C2.83325 4.60388 3.78571 3.59553 4.99253 3.5064L5.16659 3.5H6.33325H5.16659ZM12.1666 3.5H13.3333C14.5627 3.5 15.5711 4.45246 15.6602 5.65928L15.6666 5.83333V22.1667C15.6666 23.3961 14.7141 24.4045 13.5073 24.4936L13.3333 24.5H12.1666C10.9371 24.5 9.92878 23.5475 9.83966 22.3407L9.83325 22.1667V5.83333C9.83325 4.60388 10.7857 3.59553 11.9925 3.5064L12.1666 3.5H13.3333H12.1666ZM20.3033 5.83392C21.2827 5.83392 22.1795 6.45295 22.5082 7.40409L22.5631 7.58625L26.0806 21.2899C26.3869 22.4804 25.7151 23.6943 24.5677 24.0802L24.4006 24.1296L23.2701 24.4201C23.0764 24.4691 22.8804 24.4936 22.6891 24.4936C21.7107 24.4936 20.813 23.8735 20.4851 22.9223L20.4304 22.7401L16.9118 9.03758C16.6066 7.84599 17.2773 6.63314 18.4257 6.24732L18.5929 6.19792L19.7223 5.90742C19.9159 5.85725 20.1119 5.83392 20.3033 5.83392ZM6.33325 5.25H5.16659C4.88036 5.25 4.64208 5.45741 4.59266 5.72883L4.58325 5.83333V22.1667C4.58325 22.4519 4.78974 22.6909 5.06177 22.7406L5.16659 22.75H6.33325C6.61947 22.75 6.85776 22.5426 6.90718 22.2712L6.91658 22.1667V5.83333C6.91658 5.54815 6.7101 5.30905 6.43806 5.25944L6.33325 5.25ZM13.3333 5.25H12.1666C11.8804 5.25 11.6421 5.45741 11.5927 5.72883L11.5833 5.83333V22.1667C11.5833 22.4519 11.7897 22.6909 12.0618 22.7406L12.1666 22.75H13.3333C13.6195 22.75 13.8578 22.5426 13.9072 22.2712L13.9166 22.1667V5.83333C13.9166 5.54815 13.7101 5.30905 13.4381 5.25944L13.3333 5.25ZM20.3044 7.58392L20.2305 7.58844L20.1574 7.60258L19.0281 7.89192C18.8239 7.94442 18.7166 8.08208 18.6699 8.16142C18.6335 8.22302 18.5815 8.33838 18.589 8.48659L18.6069 8.60358L22.1256 22.3049C22.2026 22.6059 22.4721 22.7436 22.6891 22.7436L22.762 22.7391L22.8349 22.7249L23.9654 22.4344C24.2434 22.3639 24.4227 22.1035 24.4025 21.8285L24.3854 21.7251L20.8679 8.02142C20.7898 7.72158 20.5214 7.58392 20.3044 7.58392Z" fill="#999999"/>
</svg>
