<svg width="20" height="20" viewBox="0 0 20 20" fill="none" xmlns="http://www.w3.org/2000/svg">
<path d="M10 1.66583C14.6031 1.66583 18.3347 5.39737 18.3347 10.0005C18.3347 14.6035 14.6031 18.3351 10 18.3351C5.39694 18.3351 1.66541 14.6035 1.66541 10.0005C1.66541 5.39737 5.39694 1.66583 10 1.66583ZM10 2.91583C6.0873 2.91583 2.91541 6.08773 2.91541 10.0005C2.91541 13.9132 6.0873 17.0851 10 17.0851C13.9128 17.0851 17.0847 13.9132 17.0847 10.0005C17.0847 6.08773 13.9128 2.91583 10 2.91583ZM9.99699 8.74965C10.3134 8.74944 10.5751 8.9844 10.6166 9.28944L10.6224 9.37424L10.6254 13.9589C10.6256 14.3041 10.346 14.5841 10.0008 14.5843C9.6844 14.5845 9.42275 14.3496 9.38117 14.0445L9.3754 13.9597L9.3724 9.37506C9.37218 9.02988 9.65182 8.74988 9.99699 8.74965ZM10.0004 5.83485C10.46 5.83485 10.8326 6.20745 10.8326 6.66707C10.8326 7.12669 10.46 7.49929 10.0004 7.49929C9.54078 7.49929 9.16819 7.12669 9.16819 6.66707C9.16819 6.20745 9.54078 5.83485 10.0004 5.83485Z" fill="#CCCCCC"/>
</svg>
