<svg width="20" height="20" viewBox="0 0 20 20" fill="none" xmlns="http://www.w3.org/2000/svg">
<path d="M8.98981 2.58543C9.40248 1.74928 10.5948 1.74927 11.0075 2.58543L12.9724 6.56686L17.3662 7.20531C18.2889 7.3394 18.6574 8.47336 17.9897 9.12422L14.8103 12.2233L15.5609 16.5994C15.7185 17.5184 14.7539 18.2192 13.9286 17.7853L9.99864 15.7192L6.06873 17.7853C5.2434 18.2192 4.27879 17.5184 4.43641 16.5994L5.18696 12.2233L2.00759 9.12422C1.33989 8.47337 1.70833 7.3394 2.63108 7.20531L7.02486 6.56686L8.98981 2.58543ZM9.99864 3.36576L8.11669 7.179C7.95282 7.51104 7.63606 7.74118 7.26964 7.79442L3.06147 8.4059L6.10653 11.3741C6.37168 11.6326 6.49267 12.0049 6.43008 12.3699L5.71124 16.561L9.47513 14.5822C9.80287 14.4099 10.1944 14.4099 10.5221 14.5822L14.286 16.561L13.5672 12.3699C13.5046 12.0049 13.6256 11.6326 13.8907 11.3741L16.9358 8.4059L12.7276 7.79442C12.3612 7.74118 12.0445 7.51103 11.8806 7.179L9.99864 3.36576Z" fill="#CCCCCC"/>
</svg>
