<svg width="20" height="20" viewBox="0 0 20 20" fill="none" xmlns="http://www.w3.org/2000/svg">
<path d="M5.28429 6.951C5.94379 6.2915 7.01537 6.29472 7.67773 6.95708L7.91389 7.19323L8.14684 6.95983C8.80752 6.29915 9.87961 6.30237 10.5432 6.96592C11.2056 7.6284 11.2077 8.69697 10.5498 9.35862L8.11058 11.7964C8.00888 11.8981 7.84399 11.8981 7.74228 11.7964L5.29037 9.34444C4.62801 8.68208 4.62479 7.6105 5.28429 6.951ZM1.71794 8.75C1.71794 5.29822 4.51616 2.5 7.96794 2.5C11.4197 2.5 14.2179 5.29822 14.2179 8.75C14.2179 12.2018 11.4197 15 7.96794 15C7.05197 15 6.18061 14.8026 5.39535 14.4475C4.53911 14.6516 3.57826 14.8822 2.95307 15.0325C2.19112 15.2157 1.50577 14.5233 1.69995 13.7623C1.85527 13.1535 2.09179 12.2261 2.30348 11.3945C1.92766 10.5907 1.71794 9.69407 1.71794 8.75ZM7.96794 3.75C5.20652 3.75 2.96794 5.98858 2.96794 8.75C2.96794 9.57619 3.16784 10.3539 3.52136 11.039L3.63012 11.2498L3.57163 11.4797C3.38149 12.227 3.16218 13.0872 2.99656 13.7365C3.66237 13.5766 4.55075 13.3636 5.31969 13.1805L5.54012 13.1281L5.74297 13.2291C6.41235 13.5623 7.16733 13.75 7.96794 13.75C10.7294 13.75 12.9679 11.5114 12.9679 8.75C12.9679 5.98858 10.7294 3.75 7.96794 3.75ZM7.88489 15.8329C9.00006 16.8675 10.4935 17.5 12.1346 17.5C13.0509 17.5 13.9225 17.3025 14.7079 16.9472C15.5777 17.1508 16.5298 17.354 17.1358 17.4806C17.8795 17.6361 18.529 16.9686 18.3586 16.2311C18.2232 15.645 18.0097 14.735 17.7988 13.8951C18.1748 13.0911 18.3846 12.1943 18.3846 11.25C18.3846 8.51427 16.6269 6.18903 14.1791 5.3421C14.471 5.87297 14.6968 6.44529 14.8455 7.048C16.2229 7.93847 17.1346 9.48779 17.1346 11.25C17.1346 12.0762 16.9347 12.8539 16.5812 13.5391L16.4724 13.7499L16.5309 13.9798C16.7208 14.726 16.9197 15.5631 17.0655 16.1885C16.4205 16.0521 15.5508 15.8634 14.7829 15.6806L14.5624 15.6281L14.3596 15.7291C13.6902 16.0623 12.9352 16.25 12.1346 16.25C11.2517 16.25 10.4222 16.0212 9.70223 15.6195C9.14727 15.7592 8.56629 15.8334 7.96799 15.8334C7.94025 15.8334 7.91255 15.8332 7.88489 15.8329Z" fill="#CCCCCC"/>
</svg>
