<svg width="29" height="28" viewBox="0 0 29 28" fill="none" xmlns="http://www.w3.org/2000/svg">
<path d="M23.3918 4.56993L23.4513 4.75619L24.0944 6.99913C24.2165 7.42495 24.001 7.8676 23.6064 8.04102L23.4945 8.08142L10.9798 11.669L23.9987 11.6701C24.4417 11.6701 24.8077 11.9993 24.8657 12.4264L24.8737 12.5451V22.4595C24.8737 24.1658 23.5417 25.5609 21.8608 25.662L21.6653 25.6678H7.08334C5.37705 25.6678 3.98186 24.3358 3.88086 22.6549L3.875 22.4595L3.87476 12.6689L3.26604 10.5442C2.79573 8.90402 3.69155 7.19574 5.2795 6.63532L5.46575 6.57582L19.4829 2.55648C21.1231 2.08616 22.8313 2.98199 23.3918 4.56993ZM23.1227 13.419H5.625V22.4595C5.625 23.1642 6.12489 23.7522 6.78943 23.8882L6.93423 23.9103L7.08334 23.9178H21.6653C22.4204 23.9178 23.0415 23.344 23.1161 22.6086L23.1237 22.4595L23.1227 13.419ZM7.69313 7.75766L5.94812 8.25803C5.22229 8.46616 4.78344 9.18898 4.91434 9.91645L4.9482 10.0619L5.34992 11.4628L5.69419 11.3638L7.69313 7.75766ZM13.2422 6.1665L10.0718 7.07559L8.07283 10.6818L11.2432 9.77268L13.2422 6.1665ZM18.7923 4.57501L15.6219 5.48411L13.623 9.09029L16.7923 8.18151L18.7923 4.57501ZM20.9474 4.30253L19.1732 7.4988L22.1698 6.63983L21.7691 5.23856C21.644 4.80256 21.3333 4.47012 20.9474 4.30253Z" fill="#999999"/>
</svg>
