<svg width="29" height="28" viewBox="0 0 29 28" fill="none" xmlns="http://www.w3.org/2000/svg">
<path d="M21.5882 16.3332C23.0372 16.3332 24.2119 17.5079 24.2119 18.9569V19.6282C24.2119 20.6716 23.839 21.6805 23.1606 22.4732C21.3297 24.6122 18.5446 25.6679 14.875 25.6679C11.2048 25.6679 8.42115 24.6119 6.5938 22.4719C5.91741 21.6799 5.54581 20.6725 5.54581 19.6309V18.9569C5.54581 17.5079 6.72047 16.3332 8.1695 16.3332H21.5882ZM21.5882 18.0832H8.1695C7.68697 18.0832 7.29581 18.4744 7.29581 18.9569V19.6309C7.29581 20.2558 7.51877 20.8603 7.9246 21.3355C9.3868 23.0478 11.6803 23.9179 14.875 23.9179C18.0697 23.9179 20.3652 23.0478 21.8311 21.3352C22.2382 20.8596 22.4619 20.2542 22.4619 19.6282V18.9569C22.4619 18.4744 22.0707 18.0832 21.5882 18.0832ZM14.875 2.33871C18.0967 2.33871 20.7083 4.95039 20.7083 8.17205C20.7083 11.3937 18.0967 14.0054 14.875 14.0054C11.6533 14.0054 9.04168 11.3937 9.04168 8.17205C9.04168 4.95039 11.6533 2.33871 14.875 2.33871ZM14.875 4.08871C12.6198 4.08871 10.7917 5.91689 10.7917 8.17205C10.7917 10.4272 12.6198 12.2554 14.875 12.2554C17.1302 12.2554 18.9583 10.4272 18.9583 8.17205C18.9583 5.91689 17.1302 4.08871 14.875 4.08871Z" fill="#999999"/>
</svg>
