<svg width="24" height="24" viewBox="0 0 24 24" fill="none" xmlns="http://www.w3.org/2000/svg">
<path d="M12.8199 5.57959L11.9992 6.4021L11.1759 5.57885C9.07688 3.47978 5.67361 3.47978 3.57455 5.57885C1.47548 7.67792 1.47548 11.0812 3.57455 13.1802L11.4699 21.0756C11.7628 21.3685 12.2377 21.3685 12.5306 21.0756L20.432 13.1788C22.5264 11.0728 22.53 7.67904 20.4306 5.57959C18.3277 3.4767 14.9228 3.47671 12.8199 5.57959ZM19.3684 12.1211L12.0002 19.4846L4.63521 12.1196C3.12192 10.6063 3.12192 8.15279 4.63521 6.63951C6.14849 5.12623 8.602 5.12623 10.1153 6.63951L11.4727 7.99695C11.7706 8.29482 12.2553 8.28901 12.5459 7.9841L13.8806 6.64025C15.3977 5.12315 17.8528 5.12315 19.3699 6.64025C20.8836 8.1539 20.881 10.6001 19.3684 12.1211Z" fill="white"/>
</svg>
